<svg width="372" height="251" viewBox="0 0 372 251" fill="none" xmlns="http://www.w3.org/2000/svg">
<path d="M62.513 92.389C62.504 91.864 62.493 91.34 62.493 90.814C62.493 40.659 103.152 0 153.307 0C196.529 0 232.695 30.196 241.869 70.643C250.424 65.854 260.278 63.112 270.779 63.112C303.545 63.112 330.107 89.674 330.107 122.44C330.107 123.779 330.047 125.104 329.959 126.421C354.284 135.451 371.62 158.865 371.62 186.332C371.62 221.618 343.015 250.224 307.728 250.224H79.865C35.757 250.223 0 214.466 0 170.358C0 132.209 26.749 100.313 62.513 92.389Z" fill="white"/>
</svg>
